<svg width="360.160009765625px" height="62.039990234375px" xmlns="http://www.w3.org/2000/svg" viewBox="69.91999511718751 43.9800048828125 360.160009765625 62.039990234375" style="background: none; --darkreader-inline-bgcolor: rgba(0, 0, 0, 0); --darkreader-inline-bgimage: none;" data-darkreader-inline-bgcolor="" data-darkreader-inline-bgimage="" preserveAspectRatio="xMidYMid"><defs><linearGradient id="editing-gradient-gradient" x1="0" x2="1" y1="0.5" y2="0.5" gradientUnits="objectBoundingBox"><stop offset="0" stop-color="#f8b195" style="--darkreader-inline-stopcolor: #670000;" data-darkreader-inline-stopcolor=""></stop><stop offset="1" stop-color="#c06c84" style="--darkreader-inline-stopcolor: #7a102e;" data-darkreader-inline-stopcolor=""></stop></linearGradient></defs><g><g transform="translate(125.86499726772308, 88.65500164031982)"><path d="M0.89-18.00L0.89-21.01L17.70-21.01L17.70-18.00L10.80-18.00L10.80 0L7.79 0L7.79-18.00L0.89-18.00ZM32.40-12.71L32.40-6.33L22.08-6.33L22.08-2.89L32.40-2.89L32.40 0L22.08 0L22.08 0Q21.49 0 20.96-0.23L20.96-0.23L20.96-0.23Q20.43-0.45 20.05-0.84L20.05-0.84L20.05-0.84Q19.66-1.23 19.43-1.76L19.43-1.76L19.43-1.76Q19.20-2.29 19.20-2.89L19.20-2.89L19.20-12.71L19.20-12.71Q19.20-13.32 19.43-13.84L19.43-13.84L19.43-13.84Q19.66-14.37 20.05-14.76L20.05-14.76L20.05-14.76Q20.43-15.15 20.96-15.37L20.96-15.37L20.96-15.37Q21.49-15.60 22.08-15.60L22.08-15.60L29.52-15.60L29.52-15.60Q30.12-15.60 30.64-15.37L30.64-15.37L30.64-15.37Q31.17-15.15 31.56-14.76L31.56-14.76L31.56-14.76Q31.95-14.37 32.18-13.84L32.18-13.84L32.18-13.84Q32.40-13.32 32.40-12.71L32.40-12.71ZM29.52-12.71L22.08-12.71L22.08-9.21L29.52-9.21L29.52-12.71ZM36.90-2.89L46.63-2.89L46.63-6.50L39.79-6.50L39.79-6.50Q39.18-6.50 38.66-6.73L38.66-6.73L38.66-6.73Q38.13-6.96 37.74-7.35L37.74-7.35L37.74-7.35Q37.35-7.73 37.13-8.26L37.13-8.26L37.13-8.26Q36.90-8.79 36.90-9.39L36.90-9.39L36.90-12.71L36.90-12.71Q36.90-13.32 37.13-13.84L37.13-13.84L37.13-13.84Q37.35-14.37 37.74-14.76L37.74-14.76L37.74-14.76Q38.13-15.15 38.66-15.37L38.66-15.37L38.66-15.37Q39.18-15.60 39.79-15.60L39.79-15.60L48.91-15.60L48.91-12.71L39.79-12.71L39.79-9.39L46.63-9.39L46.63-9.39Q47.23-9.39 47.75-9.16L47.75-9.16L47.75-9.16Q48.27-8.94 48.66-8.55L48.66-8.55L48.66-8.55Q49.06-8.16 49.28-7.63L49.28-7.63L49.28-7.63Q49.51-7.10 49.51-6.50L49.51-6.50L49.51-2.89L49.51-2.89Q49.51-2.29 49.28-1.76L49.28-1.76L49.28-1.76Q49.06-1.23 48.66-0.84L48.66-0.84L48.66-0.84Q48.27-0.45 47.75-0.23L47.75-0.23L47.75-0.23Q47.23 0 46.63 0L46.63 0L36.90 0L36.90-2.89ZM53.10-12.71L53.10-15.60L56.91-15.60L56.91-20.41L59.79-20.41L59.79-15.60L64.92-15.60L64.92-12.71L59.79-12.71L59.79-2.89L64.92-2.89L64.92 0L59.79 0L59.79 0Q59.21 0 58.68-0.23L58.68-0.23L58.68-0.23Q58.15-0.45 57.76-0.84L57.76-0.84L57.76-0.84Q57.36-1.23 57.14-1.76L57.14-1.76L57.14-1.76Q56.91-2.29 56.91-2.89L56.91-2.89L56.91-12.71L53.10-12.71ZM82.02 0L79.01 0L79.01-21.01L90.51-21.01L90.51-21.01Q95.61-21.01 95.61-15.89L95.61-15.89L95.61-12.91L95.61-12.91Q95.61-7.79 90.51-7.79L90.51-7.79L82.02-7.79L82.02 0ZM82.02-18.00L82.02-10.80L90.35-10.80L90.35-10.80Q91.55-10.80 92.08-11.32L92.08-11.32L92.08-11.32Q92.61-11.85 92.61-13.05L92.61-13.05L92.61-15.75L92.61-15.75Q92.61-16.95 92.08-17.48L92.08-17.48L92.08-17.48Q91.55-18.00 90.35-18.00L90.35-18.00L82.02-18.00ZM99.51-2.89L99.51-6.81L99.51-6.81Q99.51-7.41 99.73-7.93L99.73-7.93L99.73-7.93Q99.96-8.45 100.35-8.85L100.35-8.85L100.35-8.85Q100.74-9.24 101.26-9.47L101.26-9.47L101.26-9.47Q101.79-9.70 102.38-9.70L102.38-9.70L109.82-9.70L109.82-12.71L100.40-12.71L100.40-15.60L109.82-15.60L109.82-15.60Q110.42-15.60 110.95-15.37L110.95-15.37L110.95-15.37Q111.47-15.15 111.86-14.76L111.86-14.76L111.86-14.76Q112.25-14.37 112.48-13.84L112.48-13.84L112.48-13.84Q112.71-13.32 112.71-12.71L112.71-12.71L112.71 0L109.82 0L109.82-2.64L109.82-2.64Q109.78-2.09 109.53-1.61L109.53-1.61L109.53-1.61Q109.28-1.13 108.89-0.77L108.89-0.77L108.89-0.77Q108.50-0.41 108.00-0.21L108.00-0.21L108.00-0.21Q107.50 0 106.95 0L106.95 0L102.38 0L102.38 0Q101.79 0 101.26-0.23L101.26-0.23L101.26-0.23Q100.74-0.45 100.35-0.84L100.35-0.84L100.35-0.84Q99.96-1.23 99.73-1.76L99.73-1.76L99.73-1.76Q99.51-2.29 99.51-2.89L99.51-2.89ZM102.38-6.81L102.38-2.89L109.82-2.89L109.82-6.81L102.38-6.81ZM117.51-3.49L117.51-12.71L117.51-12.71Q117.51-13.32 117.74-13.84L117.74-13.84L117.74-13.84Q117.96-14.37 118.35-14.76L118.35-14.76L118.35-14.76Q118.74-15.15 119.27-15.37L119.27-15.37L119.27-15.37Q119.79-15.60 120.38-15.60L120.38-15.60L125.55-15.60L125.55-15.60Q126.12-15.60 126.64-15.39L126.64-15.39L126.64-15.39Q127.15-15.18 127.54-14.80L127.54-14.80L127.54-14.80Q127.92-14.43 128.17-13.92L128.17-13.92L128.17-13.92Q128.41-13.42 128.42-12.85L128.42-12.85L128.42-15.60L131.31-15.60L131.31 3.41L131.31 3.41Q131.31 4.01 131.08 4.54L131.08 4.54L131.08 4.54Q130.85 5.07 130.47 5.46L130.47 5.46L130.47 5.46Q130.08 5.84 129.55 6.07L129.55 6.07L129.55 6.07Q129.02 6.30 128.42 6.30L128.42 6.30L119.31 6.30L119.31 3.41L128.42 3.41L128.42-0.60L120.38-0.60L120.38-0.60Q119.79-0.60 119.27-0.83L119.27-0.83L119.27-0.83Q118.74-1.05 118.35-1.44L118.35-1.44L118.35-1.44Q117.96-1.83 117.74-2.36L117.74-2.36L117.74-2.36Q117.51-2.89 117.51-3.49L117.51-3.49ZM120.38-3.49L128.42-3.49L128.42-12.71L120.38-12.71L120.38-3.49ZM149.31-12.71L149.31-6.33L138.98-6.33L138.98-2.89L149.31-2.89L149.31 0L138.98 0L138.98 0Q138.40 0 137.87-0.23L137.87-0.23L137.87-0.23Q137.34-0.45 136.96-0.84L136.96-0.84L136.96-0.84Q136.57-1.23 136.34-1.76L136.34-1.76L136.34-1.76Q136.11-2.29 136.11-2.89L136.11-2.89L136.11-12.71L136.11-12.71Q136.11-13.32 136.34-13.84L136.34-13.84L136.34-13.84Q136.57-14.37 136.96-14.76L136.96-14.76L136.96-14.76Q137.34-15.15 137.87-15.37L137.87-15.37L137.87-15.37Q138.40-15.60 138.98-15.60L138.98-15.60L146.43-15.60L146.43-15.60Q147.03-15.60 147.55-15.37L147.55-15.37L147.55-15.37Q148.08-15.15 148.47-14.76L148.47-14.76L148.47-14.76Q148.86-14.37 149.08-13.84L149.08-13.84L149.08-13.84Q149.31-13.32 149.31-12.71L149.31-12.71ZM146.43-12.71L138.98-12.71L138.98-9.21L146.43-9.21L146.43-12.71ZM154.12 0L154.12-4.38L158.50-4.38L158.50 0L154.12 0ZM178.62-21.01L181.63-21.01L181.63 0L178.62 0L178.62-8.99L166.60-8.99L166.60 0L163.59 0L163.59-21.01L166.60-21.01L166.60-12.00L178.62-12.00L178.62-21.01ZM185.21-18.00L185.21-21.01L202.02-21.01L202.02-18.00L195.12-18.00L195.12 0L192.11 0L192.11-18.00L185.21-18.00ZM217.35 0L216.46 0L208.62-15.40L208.62 0L205.62 0L205.62-21.01L208.90-21.01L216.90-5.19L224.91-21.01L228.18-21.01L228.18 0L225.19 0L225.19-15.40L217.35 0ZM233.58-21.01L236.59-21.01L236.59-3.00L247.38-3.00L247.38 0L233.58 0L233.58-21.01Z" fill="url(#editing-gradient-gradient)"></path></g></g><style>text {
  font-size: 64px;
  font-family: Arial Black;
  dominant-baseline: central;
  text-anchor: middle;
}</style><style class="darkreader darkreader--sync" media="screen"></style></svg>